# xmcd
#
# Track frame offsets:
#	150
#	20951
#	38553
#	49388
#	61308
#	80188
#	97264
#	116005
#	129619
#	145859
#	163819
#	181726
#	216875
#	232767
#
# Disc length: 3336 seconds
#
# Revision: 1
# Processed by: cddbd v1.5.2PL0 Copyright (c) Steve Scherf et al.
# Submitted via: audiograbber 1.83.01
#
DISCID=cc0d060e
DTITLE=Bluesm@ail - Für die Liebe gibt es keinen Ersatz
DYEAR=2009
DGENRE=Blues
TTITLE0=Hello Josephine
TTITLE1=An der Elbe
TTITLE2=Für die Liebe gibt es keinen Ersatz
TTITLE3=Ist das nicht zuvie verlangt?
TTITLE4=Jambalaya
TTITLE5=Iko Iko
TTITLE6=Let the mermaids flirt with me
TTITLE7=Lucille
TTITLE8=Te-Ni-Nee-Ni-Nu
TTITLE9=In ein paar Tagen - später
TTITLE10=Cherly, Du redest zuviel
TTITLE11=Du kannst nicht verlieren, was Du nie besessen hast
TTITLE12=Talk to me, Baby
TTITLE13=Flip, Flop and Fly
EXTD=
EXTT0=
EXTT1=
EXTT2=
EXTT3=
EXTT4=
EXTT5=
EXTT6=
EXTT7=
EXTT8=
EXTT9=
EXTT10=
EXTT11=
EXTT12=
EXTT13=
PLAYORDER=
